<svg xmlns="http://www.w3.org/2000/svg" viewBox="0 0 477.61 166.58"><defs><style>.cls-1,.cls-2{fill:#e7290f;}.cls-2,.cls-4{fill-rule:evenodd;}.cls-3,.cls-4{fill:#221714;}</style></defs><title>資產 1</title><g id="圖層_2" data-name="圖層 2"><g id="圖層_1-2" data-name="圖層 1"><path class="cls-1" d="M393.91,106.63a38.93,38.93,0,1,1-9.6-25.8l-9.6,9.6a25.65,25.65,0,1,0,3,27.93H359.57l-2-11.73h36.36Z"/><path class="cls-1" d="M477.61,106.63a39.08,39.08,0,1,1-39-39.13A39.05,39.05,0,0,1,477.61,106.63Zm-39-25.69a25.7,25.7,0,1,0,25.7,25.69A25.7,25.7,0,0,0,438.58,80.94Zm0,19.4a6.24,6.24,0,1,0,6.29,6.29A6.3,6.3,0,0,0,438.58,100.34Z"/><path class="cls-2" d="M122.35,81.28c-6.52-.76-12.63,3.76-13.59,9.76-.32,2,.16,4.14,0,6.27-1.9,25-17.41,44.2-45,44.27-24,.07-43.33-11.87-52.64-26.14-1.75-2.68-4-9-8-8.71-4.63.35-3.14,6-1.74,8.36,5.06,8.72,12.33,15.6,19.17,21.26A71.89,71.89,0,0,0,75,152.74a70.28,70.28,0,0,0,51.94-33.46c3.4-5.6,7.08-12.11,8-20.22C136,90,131.16,82.3,122.35,81.28Z"/><path class="cls-3" d="M308.19,92.06s-7.71-1.14-10.76-1.36a105,105,0,0,0-10.62-.5,64.94,64.94,0,0,0-15,1.65A40.12,40.12,0,0,0,259,97.42a38.67,38.67,0,0,0-10.14,9.72,34.69,34.69,0,0,0-5.58,12.67,22.41,22.41,0,0,0,.08,11,12.74,12.74,0,0,0,5.94,7.77,20.75,20.75,0,0,0,11.31,2.82,32.79,32.79,0,0,0,5.58-.53,27.78,27.78,0,0,0,5.11-1.52,35.56,35.56,0,0,0,4.13-2c1.2-.72,3.1-2.1,3.1-2.1.59-.4,1.51-1.07,2.12-1.53l1-.68c.59-.39.89-.1.68.65l-.24,1c-.18.78-.55,2.07-.76,2.81,0,0-.88,3.17-1.39,4.74a23.54,23.54,0,0,1-1.81,4.37,17.38,17.38,0,0,1-2.65,3.49A12.74,12.74,0,0,1,272,152.7a17.7,17.7,0,0,1-4.55,1.65,23,23,0,0,1-5.79.7c-2.74,0-19.9.12-19.9.12a1.89,1.89,0,0,0-1.62,1.39l-2.34,8.66c-.23.76.16,1.4.86,1.36l27.18-.24c.72,0,1.83-.09,2.47-.15,0,0,4.93-.39,7.65-.87a40.37,40.37,0,0,0,7-1.84,22.72,22.72,0,0,0,5.42-2.77,19.17,19.17,0,0,0,4-3.58,21.48,21.48,0,0,0,2.76-4.35c.81-1.81,1.57-4.25,1.57-4.25.24-.82.59-2.05.78-2.84l1.1-4.36c.17-.78.5-2.06.66-2.83l9.93-44.83A1.28,1.28,0,0,0,308.19,92.06Zm-17.6,11.37c-.12.43-.39,1.39-.59,2.2,0,0-2.74,10-4.29,13.28a22.08,22.08,0,0,1-6.61,8.37,15,15,0,0,1-8.62,3.07,9.94,9.94,0,0,1-5.47-1.53,7,7,0,0,1-3.13-4.55,14.87,14.87,0,0,1,.09-6,21.58,21.58,0,0,1,4.12-8.4,19.79,19.79,0,0,1,7.65-6.09c2.84-1.27,8.3-1.86,8.3-1.86.7,0,1.8-.08,2.47,0l3.76.35a14.38,14.38,0,0,1,1.85.32C290.49,102.57,290.67,103,290.59,103.43Z"/><path class="cls-3" d="M239.51,107.32s1.25-4.41,1.49-5.61c.69-3.18.43-5.54-.83-7.15a12,12,0,0,0-6.63-3.88,42.88,42.88,0,0,0-10.95-1.24c-6.35.06-23.19.17-23.19.17A2.13,2.13,0,0,0,197.6,91l-2.08,5c-.31.75,0,1.34.68,1.27,0,0,13.71-.23,18.77-.24a9.93,9.93,0,0,1,5.44,1.19,4.15,4.15,0,0,1,1.55,4.54,8.2,8.2,0,0,1-.89,2.12,8.55,8.55,0,0,1-1.71,1.82,8,8,0,0,1-2.31,1.32c-.76.29-2,.62-3.75,1.07s-3.48.79-5.47,1.16a103,103,0,0,0-11.44,2.58,35.22,35.22,0,0,0-7.19,2.81,22.66,22.66,0,0,0-4.76,3.39A19.33,19.33,0,0,0,181.1,123a12.41,12.41,0,0,0-1.58,3.87,10.76,10.76,0,0,0,.59,6.7,8.5,8.5,0,0,0,4.95,5c2.51,1.12,5.9,1.63,10.16,1.6,2,0,14.31,0,18.18.08a.52.52,0,0,0,.18,0l15.55-.06a1.87,1.87,0,0,0,1.65-1.44l7.87-28.58C238.86,109.33,239.25,108.1,239.51,107.32Zm-20.18,9c-.23.81-.62,2-.86,2.79l-4,13.58c-3.92,0-10.62,0-11.12,0-2.48,0-4.14-.52-5.17-1.51a4.65,4.65,0,0,1-1.06-4.41,7.52,7.52,0,0,1,1.36-2.93,10.83,10.83,0,0,1,2.74-2.39,19.25,19.25,0,0,1,3.51-1.58c1.23-.37,2.89-.87,4.94-1.43,1.87-.51,3.36-.92,4.22-1.23s2.19-.8,2.19-.8c.67-.26,1.73-.7,2.37-.91l.06-.09c.63-.25,1,.17.75,1Z"/><path class="cls-3" d="M167.66,139.42a2,2,0,0,1-1.74,1.58l-18.66.14a1.11,1.11,0,0,1-1-1.55l8.16-32c.22-.82.55-2.22.81-3l7.44-29.11c.18-.83.48-2,.64-2.53s-.18-1-.62-1-1.42,0-2.22,0l-20.52.14c-.77,0-1.24-.69-1-1.54l2.81-9.83a2.11,2.11,0,0,1,1.76-1.53l68.52-.4c.77,0,1.2.68.92,1.53l-2.77,9.83a2.16,2.16,0,0,1-1.79,1.57l-20.32.09h-2.14a1.17,1.17,0,0,0-1,.92c-.15.55-.44,1.64-.69,2.45Z"/><path class="cls-4" d="M92.93.38c31.94-5.78,26.08,57-6.45,50.67C73,48.44,71.74,18.87,79.11,7.75,81.5,4.12,86.59,1.52,92.93.38Z"/><path class="cls-4" d="M15.59,69C10.15,65,8.36,56.16,9,48.7c.87-10,5.86-18.62,13.19-19.13,5.28-.37,10.43,4.24,14,10.43s5.52,14,4.43,20C38.56,71.25,21,73,15.59,69Z"/></g></g></svg>